<?xml version="1.0" encoding="utf-8"?>
<!-- Generator: Adobe Illustrator 19.2.1, SVG Export Plug-In . SVG Version: 6.00 Build 0)  -->
<svg version="1.1" id="layer" xmlns="http://www.w3.org/2000/svg" xmlns:xlink="http://www.w3.org/1999/xlink" x="0px" y="0px"
	 viewBox="0 0 652 652" style="enable-background:new 0 0 652 652;" xml:space="preserve">
<style type="text/css">
	.st0{fill:#0064FF;}
</style>
<path class="st0" d="M143.2,341.2v29.1h-14.1v-78h14v7.7c3.7-5.5,10-8.9,17.5-8.9c14,0,26.8,11.2,26.8,29s-13,29-26.7,29
	C153.2,349.1,146.9,346.3,143.2,341.2z M173.2,320c0-8.8-6.8-15.7-15.4-15.7c-8.8,0-15.5,7-15.5,15.7c0,8.7,6.7,15.7,15.5,15.7
	C166.4,335.7,173.2,328.8,173.2,320z M316.5,292.3h14.2v6.6c3.4-4.9,8.8-7.7,15.5-7.7c8.4,0,14,3.4,17,9.4c3.5-5.8,9.8-9.4,17.4-9.4
	c14.1,0,21.2,8.7,21.2,22.6V348h-14.6v-32.2c0-7.5-3.1-12.2-10.3-12.2c-6.4,0-10.6,4.3-10.6,13.1V348h-14.5v-32.6
	c0-7.4-3.1-11.8-10-11.8c-6.7,0-10.9,4.4-10.9,13.4V348h-14.3L316.5,292.3L316.5,292.3z M437.9,291.3c-11.9,0-21.7,6.6-26.3,16.3
	c-1.8,3.9-2.9,8.2-2.9,12.8c0,16.2,11.5,28.9,29.5,28.9c11.7,0,19.4-4.6,24.9-11.9l-11.6-6.7c-2.8,3.9-7,6.3-13.1,6.3
	c-8.2,0-14.1-4.5-16-11.8h43.9v0c0.2-1.6,0.4-3.2,0.4-4.9v-0.5C466.7,303.3,454.6,291.3,437.9,291.3z M422.9,314
	c2.3-6.5,7.8-10.7,15.1-10.7c7.4,0,12.8,3.8,14.6,10.7H422.9z M473.8,292.3H488v7c3.6-5,9.4-8.1,16.3-8.1c13.2,0,21.5,8.7,21.5,23.2
	V348h-14.5v-31.5c0-7.9-3.8-12.9-11.3-12.9c-6.7,0-11.9,5-11.9,13.6V348h-14.3V292.3z M529.7,292.3H540v-12.1l14-8.2v20.3h14.6v12.6
	H554v22.9c0,5.9,2.5,7.9,6.1,7.9c2,0,3.5-0.6,5.1-2.1l6.5,11.1c-3.6,2.7-8.1,4.2-13.3,4.2c-11.6,0-18.5-5.6-18.5-20.7v-23.4h-10.3
	C529.7,304.9,529.7,292.3,529.7,292.3z M236.2,299.4c-3.8-5.1-9.9-8.2-17.2-8.2c-14.2,0-27,11.2-27,29s13.1,29,26.8,29
	c7.2,0,13.5-3.3,17.4-8.8v7.6h14v-55.7h-14V299.4z M221.6,335.7c-8.6,0-15.5-6.9-15.5-15.7c0-8.8,6.9-15.7,15.5-15.7
	c8.8,0,15.5,7,15.5,15.7C237,328.7,230.3,335.7,221.6,335.7z M297.7,292.3L284,328.2l-14.4-35.9h-15.1l22.4,53.3l0.3,0.7l-9,23.6
	l0,0.1h14.8l29.7-77.7H297.7z M585,330c2.5,4.9,6.9,7.5,12.8,7.5c5.8,0,8.9-2.8,8.9-6.1c0-4-6-4.9-13.1-6.4
	c-9.4-1.9-19.8-4.8-19.9-16.5c0-9.4,9-17.6,22.7-17.5c10.9,0,17.7,3.8,22.8,10.2l-11.8,6.9c-2.3-3.7-5.8-5.9-10.9-5.8
	c-5.6,0-8.2,2.3-8.2,5.4c0,3.5,4.6,4.4,12.7,6.2c9.3,1.8,20.2,5,20.3,17c0,8.7-7.7,18.5-23.9,18.4c-12.2,0-20.3-4.2-25-11.8l0,0
	L585,330L585,330z M106.8,316.7c-2.2-18.9-18.2-32.9-36.8-33.1h-0.4c-1.4,0-2.9,0.1-4.3,0.3c-5.3,0.6-10.2,2.3-14.5,4.8
	c-0.1,0.1-0.2,0.1-0.3,0.2c-0.1,0-0.2,0.1-0.3,0.1c-21.4,12.8-29.1,42.2-29.1,60.1l17.3-10c6.1,11.6,17.7,19.2,30.7,19.4h0.4
	c1.4,0,2.9-0.1,4.3-0.3C94.5,355.9,109.2,337.3,106.8,316.7z"/>
</svg>
